<svg id="Layer_1" data-name="Layer 1" xmlns="http://www.w3.org/2000/svg" viewBox="0 0 227 227"><title>MoMo logo - Brandlogos.net</title><path d="M270.5,295.72a25.22,25.22,0,0,1,25.22-25.22H472.28a25.22,25.22,0,0,1,25.22,25.22V472.28a25.22,25.22,0,0,1-25.22,25.22H295.72a25.22,25.22,0,0,1-25.22-25.22Z" transform="translate(-270.5 -270.5)" style="fill:#a50064"/><path d="M434,302a35.79,35.79,0,1,0,35.79,35.79A35.8,35.8,0,0,0,434,302Zm0,51a15.25,15.25,0,1,1,15.25-15.25A15.28,15.28,0,0,1,434,353.07Z" transform="translate(-270.5 -270.5)" style="fill:#fff"/><path d="M361.17,302A27.23,27.23,0,0,0,345,307.32,25.9,25.9,0,0,0,328.8,302,26.77,26.77,0,0,0,302,328.8v44.82h20.54V328.8a5.91,5.91,0,1,1,11.83,0v44.82h20.54V328.8a5.91,5.91,0,1,1,11.83,0v44.82h20.54V329.11A25.94,25.94,0,0,0,361.17,302Z" transform="translate(-270.5 -270.5)" style="fill:#fff"/><path d="M434,389.18A35.79,35.79,0,1,0,469.79,425,35.8,35.8,0,0,0,434,389.18Zm0,50.73a15.25,15.25,0,1,1,15.25-15.25A15.08,15.08,0,0,1,434,439.91Z" transform="translate(-270.5 -270.5)" style="fill:#fff"/><path d="M361.17,389.18A27.23,27.23,0,0,0,345,394.47a25.9,25.9,0,0,0-16.19-5.29A26.77,26.77,0,0,0,302,415.95v44.82h20.54V415.64a5.91,5.91,0,0,1,11.83,0v44.82h20.54V415.64a5.91,5.91,0,0,1,11.83,0v44.82h20.54V415.95C387.93,401,376.11,389.18,361.17,389.18Z" transform="translate(-270.5 -270.5)" style="fill:#fff"/></svg>