<?xml version="1.0" encoding="UTF-8"?>
<svg id="Layer_1" xmlns="http://www.w3.org/2000/svg" version="1.1" viewBox="0 0 2304 984">
  <!-- Generator: Adobe Illustrator 29.1.0, SVG Export Plug-In . SVG Version: 2.1.0 Build 142)  -->
  <defs>
    <style>
      .st0, .st1 {
        fill: #231f20;
      }

      .st1 {
        fill-rule: evenodd;
      }
    </style>
  </defs>
  <rect class="st0" x="1396.63" y="213.39" width="134.86" height="551.69"/>
  <polygon class="st1" points="347.6 81.32 86.57 81.32 71.75 95.75 71.75 352.66 105.82 352.66 105.82 128.1 119.55 114.68 347.6 114.68 347.6 81.32"/>
  <polygon class="st1" points="1956.4 893.27 2217.51 893.27 2232.25 878.84 2232.25 621.93 2198.18 621.93 2198.18 846.48 2184.45 859.91 1956.4 859.91 1956.4 893.27"/>
  <polygon class="st1" points="510.98 419.76 470.4 419.76 470.4 461.35 470.4 517.07 413.29 517.07 413.29 461.35 470.4 461.35 470.4 419.76 372.71 419.76 372.71 559.43 510.98 559.43 510.98 517.07 510.98 461.35 510.98 419.76"/>
  <polygon class="st1" points="162.55 752.72 173.34 765.13 512.35 765.13 512.35 747.91 512.35 631.28 304.63 631.28 304.63 230.59 304.63 216.86 173.34 216.86 163.25 228.19 162.55 752.72"/>
  <polygon class="st1" points="711.27 216.83 372.73 216.83 372.73 230.57 372.73 353.71 582.54 353.71 582.54 902.68 722.14 902.68 722.14 353.71 722.14 228.16 711.27 216.83"/>
  <path class="st1" d="M780.69,213.4h558.44v335.83h-232.7l231.15,215.87h-202.75l-224.01-221.37v221.37h-130.12v-340.48h409.38v-83.65h-409.38s.78-127.56,0-127.56"/>
  <polygon class="st1" points="2142.12 345.71 2142.12 214.81 1590.73 214.81 1590.73 551.57 1961.71 551.57 1961.71 632.81 1590.73 632.81 1590.73 763.78 2142.12 763.78 2142.12 420.66 1771.22 420.66 1771.22 345.71 2142.12 345.71"/>
</svg>