<?xml version="1.0" encoding="UTF-8"?><svg id="uuid-49bdc5ce-e9a9-4957-8601-868c1bf3d90b" xmlns="http://www.w3.org/2000/svg" viewBox="0 0 904.22 305.41">
<title>SPEI logo - Brandlogos.net</title><path d="M169.8,92.38c27.54-1.4,53.7-3.51,80.82-4.71C242.82,30.36,215.15,0,131.46,0S13.61,42.24,8.89,81.05c-5.3,43.68,27.57,71.65,80.14,86.94,45.4,13.3,83.45,22.55,84.63,44.84,1.28,23.98-26.12,37.45-39.69,37.45-24.25,0-50.63-26.86-53.79-51.49-26.39,2.09-53.79,2.21-80.19,4.3,0,66.89,54.36,102.31,126.44,102.31,67.21,0,133.23-28.26,133.23-100.55,0-87.76-94.95-87.73-157.11-109.35-21.73-12-10.4-38.25,10.06-40.56,41.3-5.01,48.39,18.48,57.19,37.41h0ZM428.54,7.11c53.86,0,92,29.68,92,89.84,0,55.14-37.94,90.33-93.02,90.33h-68.79v105.58q0,7.25-6.41,7.25h-71.77q-8.99,0-8.99-6.75V19.64q0-12.53,12.61-12.53h144.37ZM365.64,131.49c-5.09,0-6.92-2.09-6.92-5.25v-56.72c0-4.16,3.39-6.5,6.5-6.5h30.15c25.95,3.83,35.45,17.89,35.45,36.23,0,26.24-23.39,32.23-43.7,32.23h-21.49,0Z" style="fill:#343084; fill-rule:evenodd;"/><path d="M540.12,15.21c0-3.67,2.64-6.49,5.55-6.49h228.78c5.05-.23,5.6,1.85,5.6,3.81v52.28c.24,2.43-1.76,3.54-3.54,3.54h-144.86c-3.03,0-4.03,3.1-4.03,6.49v35.3c0,3.81,2.71,7.29,7.29,7.29h128.18l2.92,2.92v49.02c-1.47,2.1-2.93,4.2-4.4,6.31h-129.16c-2.99,0-4.83,1.84-4.83,4.83v47.02c0,2.59,3.09,5.48,6.7,5.48h142.8c1.89,0,2.92,1.8,2.92,2.92v57.11c0,1.34-1.52,2.81-2.81,2.81h-234.77c-1.24,0-2.34-1.23-2.34-2.34V15.21h0Z" style="fill:#ff9400; fill-rule:evenodd;"/><path d="M904.22,170.69v125.18h-81.46c-1.24,0-2.34-1.23-2.34-2.34v-111.83c0-2.99,2.07-4.72,3.62-4.72h23.39c2.34,0,2.94,2.01,2.94,3.77v52.26c0,6.6,5.54,3.76,8.5,0,15.12-20.78,30.24-41.55,45.37-62.33h0Z" style="fill:#343084; fill-rule:evenodd;"/><path d="M816.86,15.21c0-3.67,2.64-6.49,5.55-6.49h74.78c5.18,0,7.04,3.17,7.04,5.68v106.89l-45.79-64.07c-.99-1.39-3.25-1.3-3.25,1.57v46.15c0,2.57-1.27,7.45-4.93,7.45h-29.84c-1.63,0-3.56-3.67-3.56-5.77V15.21h0Z" style="fill:#ff9400; fill-rule:evenodd;"/></svg>