<?xml version="1.0" encoding="UTF-8"?>
<svg id="Layer_1" data-name="Layer 1" xmlns="http://www.w3.org/2000/svg" viewBox="0 0 623.49 585.2">
  <defs>
    <style>
      .cls-1 {
        fill: #fa2f43;
      }

      .cls-2 {
        fill: #fe9196;
        fill-rule: evenodd;
      }

      .cls-3 {
        fill: #ff5a61;
      }

      .cls-4 {
        fill: #fffeff;
      }
    </style>
  </defs>
  <path class="cls-2" d="M332.98,570.08L15.04,251c-29.89-30-12.69-81.25,29.24-87.15l520.57-73.18c41.3-5.81,71.94,37.41,52.8,74.46l-202.64,392.26c-15.98,30.94-57.46,37.35-82.04,12.68"/>
  <path class="cls-3" d="M239.48,8.49c-45.66-25.81-101.41,10.66-96.06,62.83l7.94,77.48,269.39-37.87L239.48,8.49ZM577.36,316.06c28.72-26.54,32.07-68.12,13.16-98.41l-85.26,165.05,72.1-66.64ZM187.99,506.45c6.53,63.77,83.08,92.7,130.15,49.19l.23-.21-139.74-140.23,9.35,91.26Z"/>
  <path class="cls-1" d="M530.25,334.33l60.27-116.67c-6.58-10.54-15.83-19.72-27.68-26.42l-142.1-80.31-269.39,37.87,27.29,266.39,139.73,140.23,186.88-172.72,24.99-48.38"/>
  <path class="cls-4" d="M262.13,210.01h-5.41c-2.15,0-3.9,1.75-3.9,3.9v10.05c0-2.36,2.63-5.08,6.6-5.08h2.7c2.15,0,3.9-1.74,3.9-3.9v-1.08c0-2.15-1.75-3.9-3.9-3.9"/>
  <path class="cls-4" d="M317.47,239.91c0,1.26-.34,2.79-2.93,2.79h-18.77c-4.77,0-8.64,2.18-8.64,4.88v-4.88c.11-3.16,0-5.78,2.71-8.21,3.61-3.25,9.03-3.16,12.52-3.16,3.72,0,8.01.18,11.28,2.17,1.91,1.17,3.83,3.42,3.83,6.41ZM460.18,239.91c0,1.26-.34,2.79-2.93,2.79h-18.77c-4.77,0-8.64,2.18-8.64,4.88v-4.88c.11-3.16,0-5.78,2.7-8.21,3.61-3.25,9.03-3.16,12.53-3.16,3.72,0,8.01.18,11.28,2.17,1.91,1.17,3.83,3.42,3.83,6.41ZM494.48,216.06c0-2.15-1.75-3.9-3.9-3.9h-5.41c-2.15,0-3.9,1.75-3.9,3.9v39.55c0,6.05,2.14,9.57,5.98,12.09,3.72,2.44,8.01,3.52,16.02,3.52h4.34c2.15,0,3.9-1.75,3.9-3.9v-4.23h-3.28c-2.37,0-7.33-.09-10.26-2.07-3.83-2.53-3.5-7.04-3.5-10.29v-34.68ZM409.98,263.1c-2.37,0-7.34-.09-10.27-2.07-3.83-2.53-3.5-7.04-3.5-10.29v-19.23h12.8c2.15,0,3.9-1.75,3.9-3.9v-4.23h-16.7v-7.33c0-2.15-1.75-3.9-3.9-3.9h-5.41c-2.15,0-3.9,1.75-3.9,3.9v7.33h-27.53v-7.33c0-2.15-1.75-3.9-3.9-3.9h-5.41c-2.15,0-3.9,1.75-3.9,3.9v7.33h-8.24v4.23c0,2.15,1.75,3.9,3.9,3.9h4.34v24.1c0,6.05,2.14,9.57,5.98,12.09,3.72,2.44,8.01,3.52,16.02,3.52h4.34c2.15,0,3.9-1.75,3.9-3.9v-4.23h-3.27c-2.37,0-7.34-.09-10.27-2.07-3.83-2.53-3.5-7.04-3.5-10.29v-19.23h27.53v24.1c0,6.05,2.14,9.57,5.98,12.09,3.72,2.44,8.01,3.52,16.02,3.52h4.34c2.15,0,3.89-1.75,3.89-3.9v-4.23h-3.27ZM329.2,267.33v-4.23h-29.22c-4.85,0-10.38-.54-12.07-5.69-.45-1.44-.79-4.51-.79-6.59h34.75c2.37,0,4.63-.36,6.43-1.8,2.48-1.99,2.82-4.79,2.82-7.22,0-6.05-1.47-12.01-8.47-15.53-5.53-2.79-12.75-3.07-19.74-3.07-5.64,0-15.79,0-22.34,4.52-6.54,4.51-7.11,11.1-7.11,20.03,0,6.32.34,12.91,4.29,17.42,4.96,5.59,12.18,6.05,18.28,6.05h29.27c2.15,0,3.9-1.75,3.9-3.9ZM471.92,267.33v-4.23h-29.22c-4.85,0-10.37-.54-12.07-5.69-.45-1.44-.79-4.51-.79-6.59h34.75c2.37,0,4.62-.36,6.43-1.8,2.48-1.99,2.82-4.79,2.82-7.22,0-6.05-1.47-12.01-8.46-15.53-5.53-2.79-12.75-3.07-19.74-3.07-5.64,0-15.79,0-22.33,4.52-6.55,4.51-7.11,11.1-7.11,20.03,0,6.32.34,12.91,4.29,17.42,4.96,5.59,12.18,6.05,18.28,6.05h29.27c2.15,0,3.9-1.75,3.9-3.9ZM262.13,223.39h-5.41c-2.15,0-3.9,1.74-3.9,3.9v40.04c0,2.15,1.74,3.9,3.9,3.9h5.41c2.15,0,3.9-1.74,3.9-3.9v-40.04c0-2.15-1.75-3.9-3.9-3.9ZM242.68,223.39c-3.41,0-6.27,2.04-7.65,4.97l-14.36,30.5c-.34.72-1.02,1.9-1.58,1.9s-1.24-1.17-1.58-1.9l-14.46-30.5c-1.39-2.92-4.25-4.97-7.66-4.97h-8.35l22.79,44.13c2.26,4.33,6.88,4.25,9.25,4.25,3.27,0,7.1-.18,9.14-4.25l22.79-44.13h-8.33ZM278.66,345.04c-1.79,5.96-6.37,9.31-14.3,9.69-7.75.37-15.54.19-23.31.24-.09,0-.17-.07-.42-.17v-1.18c0-12.14,0-24.28,0-36.42,0-3.12,1.23-4.07,5.31-4.07,4.72,0,9.43-.06,14.15.02,2.35.04,4.73.16,7.02.53,6.39,1.03,10.04,4.29,11.48,9.07.59,1.95.99,3.97,1.11,5.97.33,5.46.59,10.94-1.03,16.32ZM325.2,341.31c.93-2.43,3.05-4.07,6.34-4.11,10.46-.11,20.92-.04,31.65-.04v3.78c0,3.37.02,6.74,0,10.12-.03,2.95-1.38,3.99-5.18,3.99-8.01.01-16.03,0-24.04,0-5.91,0-8.45-1.63-9.29-6.14-.48-2.54-.43-5.11.52-7.61ZM381.18,321.65c0-1.51-.09-3.03-.37-4.52-.87-4.61-3.28-8.61-8.27-11.44-4.39-2.49-9.45-3.23-14.77-3.23-14.79,0-29.57,0-44.35,0h-1.55c0,5.93,4.8,10.73,10.73,10.73,4.81,0,10.19,0,13.7,0,5.36,0,10.73-.04,16.09.03,3.65.05,6.99.79,9.05,3.39,2.4,3.04,1.63,6.4,1.74,9.78h-2.05c-12.23.02-24.45-.08-36.68.09-6.87.09-12.15,2.59-15.41,7.39-2.36,3.48-3.12,7.25-3.22,11.13-.11,4.33.28,8.6,2.48,12.66,2.44,4.49,7.92,8.07,16.08,7.94v.03h45.75v-.03c4.47-.08,8.64-2.22,9.99-5.54.72-1.77,1.01-3.72,1.03-5.59.09-10.94.06-21.88.03-32.82ZM296.18,318.41c-2.35-6.32-6.97-11.21-15.02-13.84-4.78-1.56-9.84-2.13-14.99-2.16-9.94-.05-19.88-.02-29.81,0-1.25,0-2.51.1-3.74.25-5.11.62-8.52,3.02-9.55,6.89-.37,1.39-.45,2.85-.46,4.28-.03,16.76-.02,33.52-.02,50.28v21.88h2.92c8.3,0,15.03-6.73,15.03-15.03v-5.38c8.78,0,17.56,0,26.35-.01,1.84,0,3.68-.03,5.5-.23,11.62-1.22,19.56-5.91,23.28-14.52,1.75-4.04,2.5-8.21,2.76-12.45.41-6.73.18-13.42-2.25-19.95ZM384.57,302.28h18.8l26.24,48.69,20.94-36.44c4.35-7.58,12.42-12.25,21.17-12.25h4.26l-43.85,75.21c-3.13,5.36-8.86,8.65-15.06,8.65h-8.5l12.65-20.73-36.64-63.13Z"/>
</svg>