<?xml version="1.0" encoding="UTF-8"?>
<svg id="Layer_1" xmlns="http://www.w3.org/2000/svg" version="1.1" viewBox="0 0 133.56 42.22">
  <!-- Generator: Adobe Illustrator 29.1.0, SVG Export Plug-In . SVG Version: 2.1.0 Build 142)  -->
  <defs>
    <style>
      .st0 {
        fill: #a02c22;
      }

      .st0, .st1, .st2, .st3 {
        fill-rule: evenodd;
      }

      .st1 {
        fill: #1e427e;
      }

      .st2 {
        fill: #ed2132;
      }

      .st3, .st4 {
        fill: #414141;
      }
    </style>
  </defs>
  <path class="st2" d="M3.84,13.13c-.77-1.34-.96-2.92-.55-4.41.42-1.48,1.41-2.74,2.76-3.47.26-.14.51-.28.76-.42,2.62-1.44,5.91-.53,7.42,2.06,2.94,5.03,7.22,12.35,7.22,12.35,0,0,4.28-7.33,7.22-12.36.72-1.23,1.89-2.12,3.27-2.48,1.38-.36,2.84-.16,4.07.56.3.17.59.35.89.52,2.66,1.56,3.57,4.97,2.05,7.65-3.2,5.64-8.56,15.09-12.49,22.03-1.02,1.79-2.91,2.9-4.97,2.91-2.06,0-3.96-1.09-4.99-2.88-3.97-6.91-9.37-16.33-12.66-22.06Z"/>
  <path class="st0" d="M13.9,6.32s-1.34-1.36-3.78-1.36-4.88,2.83-3.12,5.89c1.76,3.05,4.41,7.57,5.17,8.72.75,1.15,2.08,2.48,4.67,2.48s4.62-2.79,4.62-2.79l-7.55-12.93Z"/>
  <path class="st2" d="M51.06,29.02h8.88c1.04,0,1.88-.84,1.88-1.88s-.84-1.88-1.88-1.88h-8.88v-4.55h8.92c1.04,0,1.88-.84,1.88-1.88s-.84-1.88-1.88-1.88h-10.79c-1.04,0-1.88.84-1.88,1.88v16.62c0,1.04.84,1.88,1.88,1.88h10.76c1.04,0,1.88-.84,1.88-1.88s-.84-1.88-1.88-1.88h-8.88v-4.55ZM67.94,20.71v14.74c0,1.04.84,1.88,1.88,1.88s1.88-.84,1.88-1.88v-14.74h3.43c1.04,0,1.88-.84,1.88-1.88s-.84-1.88-1.88-1.88h-10.72c-1.04,0-1.88.84-1.88,1.88s.84,1.88,1.88,1.88h3.54ZM40.36,18.84v16.62c0,1.04.84,1.88,1.88,1.88s1.88-.84,1.88-1.88v-16.62c0-1.04-.84-1.88-1.88-1.88s-1.88.84-1.88,1.88Z"/>
  <path class="st1" d="M88.1,33.59l2.12,3.74s-1.5.16-2.6.19c-3.5.09-10.85-2.09-10.85-10.38s7.88-10.34,10.99-10.34,10.93,2.32,10.93,10.34c0,5.08-3.06,7.4-3.06,7.4l1.57,2.6h-4.37l-5.45-9.52h4.28l1.53,2.59s.85-1.01.85-3.07-1.62-6.38-6.18-6.38-6.32,3.72-6.32,6.38c0,6.61,6.58,6.45,6.58,6.45Z"/>
  <path class="st1" d="M100.77,17.18h9.35c3.36,0,7.95,2.15,7.95,7.25s-4.11,6.46-4.11,6.46l4.54,6.3h-5.1l-7.55-10.99h4.97l.86,1.29s1.73-.75,1.73-3-2-3.54-3.98-3.54h-4.06v16.2h-4.62l.03-19.98Z"/>
  <rect class="st4" x="118.5" y="8.55" width="5.01" height="1.28"/>
  <rect class="st4" x="120.28" y="9.19" width="1.45" height="5.14"/>
  <polygon class="st3" points="124.22 8.55 125.44 8.55 127.31 11.76 129.24 8.55 130.48 8.55 130.48 14.33 129.13 14.33 129.13 11.21 127.73 13.44 126.94 13.44 125.6 11.2 125.6 14.33 124.21 14.33 124.22 8.55"/>
</svg>