<?xml version="1.0" encoding="UTF-8"?>
<svg id="Layer_1" xmlns="http://www.w3.org/2000/svg" version="1.1" viewBox="0 0 734.98 148.98">
  <!-- Generator: Adobe Illustrator 30.0.0, SVG Export Plug-In . SVG Version: 2.1.1 Build 123)  -->
  <defs>
    <style>
      .st0 {
        fill: #231f20;
      }
    </style>
  </defs>
  <g>
    <path d="M37.34,31.82l122.7-.07c4.33.5,7.7,3.55,8.72,7.76.63,22.57.08,45.24.28,67.84-.36,5.3-3.68,9.14-9,9.87H37.92c-5-.48-8.71-4.71-8.99-9.66V41.62c.34-5.02,3.4-8.84,8.41-9.8ZM164.05,44.56v-3.8c0-.1-.64-1.63-.77-1.83-1-1.57-2.96-2.28-4.75-2.4H40.09c-2.08.13-4.2.52-5.4,2.4-.13.21-.77,1.73-.77,1.83v3.8h130.13ZM164.05,108.22v-47.93l-.33-.33H34.24l-.33.33v47.71c0,.15.55,1.69.68,1.92,1.05,1.81,3.3,2.47,5.27,2.54h118.66c2.44.03,5.13-1.74,5.52-4.24Z"/>
    <g>
      <path d="M142.91,71.66l-7.69.04-9.78,27.52h6.94l1.73-4.89,10.28.1,1.76,4.79h6.83l-10.08-27.56ZM135.86,89.24l3.36-9.98,3.36,9.98h-6.72Z"/>
      <path d="M44.84,102.39c-4.3-3.84-3.64-11.07,1.41-13.94,3.7-2.1,7.26-1.18,10.52,1.2,4.5-4.28,12.21-2.41,14.12,3.5,2.81,8.64-7.6,15.02-14.2,8.99.5-.84,1.17-1.35,1.62-2.27,1.65-3.39,1.09-7.27-1.54-9.96-3.74,2.87-3.34,8.76-.33,12.07-2.64,3.39-8.51,3.19-11.61.43Z"/>
      <path d="M109.5,71.67l6.83,20.6,6.94-20.6h7.16l-9.65,27.33c-.16.24-.4.2-.64.23-2.38.3-5.35-.26-7.8,0l-9.68-27.56h6.83Z"/>
    </g>
  </g>
  <g>
    <path class="st0" d="M233.51,52.54h9.9l-15.72,46.24h-10.69l-15.69-46.24h9.9l8.7,27.52c.49,1.62.99,3.52,1.5,5.68.52,2.16.84,3.66.96,4.51.23-1.94,1.02-5.33,2.37-10.19l8.76-27.52Z"/>
    <path class="st0" d="M248.06,54.28c0-3.14,1.75-4.71,5.25-4.71s5.25,1.57,5.25,4.71c0,1.5-.44,2.66-1.31,3.5-.88.83-2.19,1.25-3.94,1.25-3.5,0-5.25-1.58-5.25-4.74ZM258.12,98.78h-9.65v-35.36h9.65v35.36Z"/>
    <path class="st0" d="M287.98,62.75c1.31,0,2.39.09,3.26.28l-.73,9.05c-.78-.21-1.73-.32-2.85-.32-3.08,0-5.48.79-7.2,2.37s-2.58,3.8-2.58,6.64v18h-9.65v-35.36h7.31l1.42,5.95h.47c1.1-1.98,2.58-3.58,4.44-4.79,1.87-1.21,3.9-1.82,6.09-1.82Z"/>
    <path class="st0" d="M312.56,91.73c1.69,0,3.71-.37,6.07-1.11v7.18c-2.4,1.08-5.36,1.61-8.86,1.61-3.86,0-6.67-.98-8.43-2.93-1.76-1.95-2.64-4.88-2.64-8.78v-17.05h-4.62v-4.08l5.31-3.23,2.78-7.46h6.17v7.53h9.9v7.24h-9.9v17.05c0,1.37.38,2.38,1.15,3.04.77.65,1.79.98,3.05.98Z"/>
    <path class="st0" d="M350.83,98.78l-1.3-4.52h-.51c-1.03,1.64-2.5,2.92-4.4,3.81-1.9.9-4.06,1.34-6.48,1.34-4.15,0-7.29-1.11-9.39-3.34-2.11-2.22-3.16-5.42-3.16-9.6v-23.06h9.65v20.65c0,2.55.45,4.47,1.36,5.74.91,1.28,2.35,1.91,4.33,1.91,2.7,0,4.65-.9,5.85-2.7,1.2-1.8,1.8-4.79,1.8-8.97v-16.64h9.65v35.36h-7.4Z"/>
    <path class="st0" d="M390.81,98.78l-1.87-4.81h-.25c-1.62,2.05-3.29,3.46-5.01,4.25-1.72.79-3.96,1.19-6.72,1.19-3.39,0-6.07-.97-8.02-2.91-1.95-1.94-2.93-4.7-2.93-8.29s1.31-6.52,3.94-8.3c2.62-1.78,6.58-2.77,11.88-2.96l6.14-.19v-1.55c0-3.58-1.83-5.38-5.5-5.38-2.83,0-6.15.85-9.96,2.56l-3.19-6.52c4.07-2.13,8.58-3.19,13.54-3.19s8.38,1.03,10.91,3.1c2.53,2.07,3.8,5.21,3.8,9.43v23.56h-6.74ZM387.97,82.4l-3.73.13c-2.8.08-4.89.59-6.26,1.52-1.37.93-2.06,2.34-2.06,4.24,0,2.72,1.56,4.08,4.68,4.08,2.24,0,4.02-.64,5.36-1.93,1.34-1.29,2.01-2.99,2.01-5.12v-2.91Z"/>
    <path class="st0" d="M417.13,98.78h-9.65v-49.22h9.65v49.22Z"/>
    <path class="st0" d="M473.15,98.78l-3.35-11.01h-16.86l-3.35,11.01h-10.56l16.32-46.43h11.99l16.38,46.43h-10.56ZM467.45,79.55c-3.1-9.97-4.84-15.61-5.23-16.92-.39-1.31-.67-2.34-.84-3.1-.7,2.7-2.69,9.37-5.98,20.02h12.05Z"/>
    <path class="st0" d="M503.13,99.41c-11.01,0-16.51-6.04-16.51-18.12,0-6.01,1.5-10.6,4.49-13.78,2.99-3.17,7.29-4.76,12.87-4.76,4.09,0,7.76.8,11.01,2.4l-2.85,7.46c-1.52-.61-2.93-1.11-4.24-1.5-1.31-.39-2.62-.58-3.92-.58-5.02,0-7.53,3.56-7.53,10.69s2.51,10.38,7.53,10.38c1.86,0,3.57-.25,5.16-.74,1.58-.5,3.16-1.27,4.75-2.33v8.26c-1.56.99-3.14,1.68-4.73,2.06-1.59.38-3.6.57-6.03.57Z"/>
    <path class="st0" d="M536.44,99.41c-11.01,0-16.51-6.04-16.51-18.12,0-6.01,1.5-10.6,4.49-13.78,2.99-3.17,7.29-4.76,12.87-4.76,4.09,0,7.76.8,11.01,2.4l-2.85,7.46c-1.52-.61-2.93-1.11-4.24-1.5-1.31-.39-2.62-.58-3.92-.58-5.02,0-7.53,3.56-7.53,10.69s2.51,10.38,7.53,10.38c1.86,0,3.57-.25,5.16-.74,1.58-.5,3.16-1.27,4.75-2.33v8.26c-1.56.99-3.14,1.68-4.73,2.06-1.59.38-3.6.57-6.03.57Z"/>
    <path class="st0" d="M587.52,81.04c0,5.76-1.52,10.26-4.55,13.51-3.04,3.25-7.26,4.87-12.68,4.87-3.4,0-6.39-.74-8.98-2.23-2.59-1.49-4.59-3.62-5.98-6.41-1.39-2.78-2.09-6.03-2.09-9.74,0-5.78,1.51-10.27,4.52-13.47,3.01-3.21,7.25-4.81,12.71-4.81,3.4,0,6.39.74,8.98,2.21s4.59,3.6,5.98,6.36c1.39,2.76,2.09,6,2.09,9.71ZM563.07,81.04c0,3.5.57,6.15,1.72,7.94,1.15,1.79,3.02,2.69,5.62,2.69s4.42-.89,5.55-2.67c1.13-1.78,1.69-4.43,1.69-7.96s-.57-6.13-1.71-7.88-3-2.63-5.6-2.63-4.43.87-5.57,2.61-1.71,4.37-1.71,7.89Z"/>
    <path class="st0" d="M620.55,98.78l-1.3-4.52h-.51c-1.03,1.64-2.5,2.92-4.4,3.81-1.9.9-4.06,1.34-6.48,1.34-4.15,0-7.29-1.11-9.39-3.34-2.11-2.22-3.16-5.42-3.16-9.6v-23.06h9.65v20.65c0,2.55.45,4.47,1.36,5.74.91,1.28,2.35,1.91,4.33,1.91,2.7,0,4.65-.9,5.85-2.7,1.2-1.8,1.8-4.79,1.8-8.97v-16.64h9.65v35.36h-7.4Z"/>
    <path class="st0" d="M670.71,98.78h-9.65v-20.65c0-2.55-.45-4.46-1.36-5.74-.91-1.28-2.35-1.91-4.33-1.91-2.7,0-4.65.9-5.85,2.7-1.2,1.8-1.8,4.79-1.8,8.97v16.64h-9.65v-35.36h7.37l1.3,4.52h.54c1.08-1.71,2.56-3,4.44-3.88,1.89-.87,4.03-1.31,6.44-1.31,4.11,0,7.23,1.11,9.36,3.34,2.13,2.23,3.2,5.44,3.2,9.63v23.06Z"/>
    <path class="st0" d="M695.54,91.73c1.69,0,3.71-.37,6.07-1.11v7.18c-2.4,1.08-5.36,1.61-8.86,1.61-3.86,0-6.67-.98-8.43-2.93-1.76-1.95-2.64-4.88-2.64-8.78v-17.05h-4.62v-4.08l5.31-3.23,2.78-7.46h6.17v7.53h9.9v7.24h-9.9v17.05c0,1.37.38,2.38,1.15,3.04.77.65,1.79.98,3.05.98Z"/>
  </g>
</svg>